<svg width="142" height="135" viewBox="0 0 142 135" fill="none" xmlns="http://www.w3.org/2000/svg">
<path d="M122.899 4.23235C131.499 11.8323 130.399 31.5323 132.999 48.0323C135.499 64.5323 141.699 77.7323 141.699 92.5323C141.699 107.232 135.599 123.532 123.799 130.432C112.099 137.332 94.6992 134.932 80.7992 130.132C66.8992 125.432 56.4992 118.432 41.2992 112.632C26.0992 106.832 6.29921 102.232 1.29921 91.7324C-3.60079 81.2324 6.3992 64.7323 13.9992 49.5323C21.6992 34.2323 26.9992 20.1324 37.0992 13.0324C47.2992 5.83235 62.3992 5.73235 79.0992 3.43235C95.7992 1.13235 114.199 -3.36765 122.899 4.23235Z" fill="#14CBA8"/>
</svg>
