<svg width="140" height="140" viewBox="0 0 140 140" fill="none" xmlns="http://www.w3.org/2000/svg">
<path d="M64.5 0V26.875H75.25V0H64.5ZM24.1875 16.6289L16.6289 24.1875L35.6094 43.3359L43.3359 35.6094L24.1875 16.6289ZM115.562 16.6289L96.4141 35.6094L104.141 43.3359L123.121 24.1875L115.562 16.6289ZM69.875 32.25C49.1519 32.25 32.25 49.1519 32.25 69.875C32.25 90.5981 49.1519 107.5 69.875 107.5C90.5981 107.5 107.5 90.5981 107.5 69.875C107.5 49.1519 90.5981 32.25 69.875 32.25ZM69.875 43C84.7822 43 96.75 54.9678 96.75 69.875C96.75 84.7822 84.7822 96.75 69.875 96.75C54.9678 96.75 43 84.7822 43 69.875C43 54.9678 54.9678 43 69.875 43ZM0 64.5V75.25H26.875V64.5H0ZM112.875 64.5V75.25H139.75V64.5H112.875ZM35.6094 96.4141L16.6289 115.562L24.1875 123.121L43.3359 104.141L35.6094 96.4141ZM104.141 96.4141L96.4141 104.141L115.562 123.121L123.121 115.562L104.141 96.4141ZM64.5 112.875V139.75H75.25V112.875H64.5Z" fill="#FFFF00"/>
</svg>
